<?xml version="1.0" standalone="no"?>
<!DOCTYPE svg PUBLIC "-//W3C//DTD SVG 20010904//EN"
 "http://www.w3.org/TR/2001/REC-SVG-20010904/DTD/svg10.dtd">
<svg version="1.0" xmlns="http://www.w3.org/2000/svg"
 width="260.000000pt" height="260.000000pt" viewBox="0 0 260.000000 260.000000"
 preserveAspectRatio="xMidYMid meet">
<metadata>
Created by potrace 1.14, written by Peter Selinger 2001-2017
</metadata>
<g transform="translate(0.000000,260.000000) scale(0.100000,-0.100000)"
fill="#000000" stroke="none">
<path d="M1190 1903 c-128 -116 -176 -159 -243 -217 -31 -27 -57 -53 -57 -57
0 -4 26 -9 58 -11 l57 -3 1 -170 c1 -93 2 -173 3 -176 1 -6 241 -9 241 -3 0 1
-16 26 -35 56 -82 123 -88 287 -15 406 l20 32 48 -24 c59 -30 116 -87 143
-144 42 -86 35 -211 -16 -292 l-24 -38 102 2 102 1 5 175 5 175 55 5 c30 3 54
9 53 13 -1 4 -21 25 -45 46 -24 21 -58 51 -76 67 -29 26 -33 35 -34 84 -1 83
-3 87 -46 85 -33 -1 -37 -4 -37 -28 1 -15 -2 -26 -6 -25 -16 6 -139 112 -139
120 0 21 -33 0 -120 -79z"/>
<path d="M1298 1513 c23 -50 27 -71 27 -156 0 -81 3 -97 15 -95 36 7 18 179
-26 255 -37 64 -47 61 -16 -4z"/>
<path d="M623 1422 c-18 -3 -22 -9 -21 -37 1 -19 6 -36 12 -38 20 -8 59 -2 63
9 2 7 -6 10 -22 7 -16 -4 -25 -1 -25 7 0 7 7 10 15 7 8 -4 17 -2 20 3 4 6 -6
10 -22 11 -24 0 -25 1 -8 8 11 5 23 7 27 5 4 -3 9 0 12 5 7 11 -21 18 -51 13z"/>
<path d="M706 1422 c-9 -2 -16 -12 -16 -23 0 -14 7 -19 25 -19 14 0 25 -5 25
-11 0 -7 -10 -9 -25 -5 -14 4 -25 2 -25 -4 0 -5 3 -10 8 -11 4 0 17 -2 28 -5
24 -4 49 19 39 36 -3 5 -15 10 -25 10 -10 0 -21 4 -25 9 -4 8 27 9 78 2 4 -1
7 -12 7 -26 0 -15 6 -25 14 -25 10 0 13 8 10 24 -3 18 1 25 18 29 12 4 20 9
17 12 -7 6 -128 12 -153 7z"/>
<path d="M1723 1413 c-17 -13 -16 -14 10 -10 38 6 43 -8 7 -23 -28 -12 -40
-28 -22 -31 50 -9 90 2 55 15 -15 6 -14 8 2 20 10 7 15 18 12 23 -11 18 -45
21 -64 6z"/>
<path d="M1818 1418 c-26 -22 -29 -46 -7 -62 11 -8 28 -13 37 -11 9 2 20 4 25
4 16 2 6 61 -12 71 -24 13 -24 13 -43 -2z m45 -25 c11 -10 -13 -32 -29 -26
-20 8 -17 33 4 33 10 0 22 -3 25 -7z"/>
<path d="M2009 1422 c-27 -5 -11 -42 18 -42 14 0 21 -4 18 -10 -3 -6 -17 -7
-31 -4 -13 3 -24 2 -24 -4 0 -5 12 -13 27 -16 33 -9 63 15 45 37 -8 9 -8 17
-1 24 11 11 -23 22 -52 15z m31 -22 c0 -5 -4 -10 -10 -10 -5 0 -10 5 -10 10 0
6 5 10 10 10 6 0 10 -4 10 -10z"/>
<path d="M1900 1405 c-27 -33 20 -76 60 -55 22 12 31 45 17 59 -16 16 -62 14
-77 -4z m65 -15 c8 -13 -20 -24 -41 -16 -8 3 -12 10 -9 16 8 13 42 13 50 0z"/>
<path d="M856 1361 c-4 -5 -2 -12 3 -15 5 -4 12 -2 15 3 4 5 2 12 -3 15 -5 4
-12 2 -15 -3z"/>
<path d="M230 1287 l0 -24 323 0 c204 0 324 4 329 10 3 6 4 16 1 24 -4 10 -67
13 -329 13 l-324 0 0 -23z"/>
<path d="M1708 1304 c-3 -3 -4 -13 -1 -23 4 -16 27 -18 334 -18 l329 1 0 23 0
23 -328 0 c-181 0 -331 -3 -334 -6z"/>
<path d="M981 1219 c-67 -14 -97 -77 -66 -142 21 -44 48 -56 123 -54 51 2 66
6 87 27 45 46 37 132 -16 160 -24 14 -85 18 -128 9z m108 -63 c39 -35 3 -86
-61 -86 -53 0 -81 28 -67 69 6 16 18 31 27 33 36 8 83 0 101 -16z"/>
<path d="M1662 1213 c-61 -25 -76 -113 -28 -162 21 -21 36 -25 88 -27 96 -3
138 30 138 107 0 40 -48 89 -87 90 -15 0 -40 2 -54 3 -15 1 -40 -4 -57 -11z
m134 -61 c19 -24 17 -39 -6 -62 -25 -25 -91 -27 -115 -4 -23 23 -15 66 14 80
31 16 91 8 107 -14z"/>
<path d="M230 1121 l0 -100 28 3 c23 3 27 8 26 35 -1 34 -1 33 39 36 21 2 32
-5 48 -31 11 -19 24 -34 27 -35 4 0 17 -2 30 -5 29 -5 28 2 -7 55 l-29 43 29
43 c16 24 29 46 29 49 0 3 -13 6 -28 6 -23 0 -33 -8 -48 -35 -19 -36 -21 -37
-54 -37 -36 0 -37 2 -33 37 3 33 2 35 -27 35 l-30 0 0 -99z"/>
<path d="M482 1123 l3 -98 80 -1 c96 0 104 2 102 27 -1 21 0 21 -76 23 -34 0
-56 6 -58 14 -4 9 12 12 56 12 58 0 61 1 61 24 0 20 -5 24 -37 24 -72 1 -83 2
-83 12 0 5 30 10 68 12 62 3 67 5 68 26 1 21 -2 22 -93 22 l-94 0 3 -97z"/>
<path d="M702 1123 l3 -98 90 0 c85 1 90 2 93 23 4 23 3 24 -68 27 -25 1 -50
3 -56 4 -7 1 -11 22 -10 59 3 73 -1 82 -30 82 -25 0 -25 0 -22 -97z"/>
<path d="M1359 1218 c-1 -2 -3 -44 -4 -95 -2 -73 0 -93 12 -97 15 -6 50 8 46
18 -2 3 -3 17 -3 31 0 24 3 25 55 25 45 0 55 -3 56 -17 4 -61 3 -61 48 -54 5
0 8 43 7 94 l-1 92 -28 3 c-25 3 -28 0 -27 -20 4 -48 3 -49 -57 -46 l-58 3 3
33 c3 29 1 32 -22 32 -14 0 -27 -1 -27 -2z"/>
<path d="M1889 1198 c-1 -25 -1 -160 0 -168 1 -4 12 -6 26 -6 24 0 25 3 25 56
l1 55 30 -37 c17 -21 37 -38 44 -38 8 0 27 17 44 37 l31 38 0 -53 c0 -28 5
-53 10 -53 46 -6 45 -9 45 91 0 95 0 95 -26 98 -21 2 -33 -6 -60 -42 -19 -25
-38 -45 -44 -45 -5 0 -24 19 -40 42 -37 50 -84 64 -86 25z"/>
<path d="M2184 1123 l1 -98 93 0 92 -1 0 26 c0 24 -2 25 -62 25 -37 0 -63 4
-65 12 -3 7 13 11 47 11 58 1 69 6 66 30 -2 14 -13 17 -56 17 -33 1 -55 6 -58
13 -3 9 15 12 62 12 64 0 66 1 66 25 0 25 0 25 -94 25 l-94 0 2 -97z"/>
<path d="M230 955 l0 -25 313 2 312 3 3 23 3 22 -315 0 -316 0 0 -25z"/>
<path d="M891 948 c28 -98 108 -210 189 -265 73 -49 141 -68 245 -68 123 0
178 26 260 121 33 38 66 73 73 77 21 13 13 32 -17 44 -26 9 -30 8 -40 -14 -6
-13 -28 -31 -49 -40 -20 -8 -50 -24 -65 -35 -22 -16 -31 -17 -42 -8 -10 8 -15
9 -15 2 0 -6 5 -14 11 -18 14 -8 -36 -60 -70 -72 -15 -5 -57 -8 -94 -7 -79 4
-132 26 -200 87 -43 38 -51 53 -76 133 l-28 90 -46 3 -46 3 10 -33z"/>
<path d="M1036 958 c27 -90 48 -130 82 -156 58 -45 99 -63 158 -67 64 -5 103
9 154 55 19 18 54 41 77 52 38 18 65 48 43 48 -6 0 -10 -4 -10 -9 0 -5 -19
-18 -42 -29 -24 -11 -65 -39 -92 -61 -45 -39 -52 -41 -113 -41 -40 0 -76 6
-96 16 -50 26 -97 65 -97 80 0 21 14 17 41 -12 34 -37 90 -60 152 -63 46 -2
58 2 96 31 24 18 56 40 72 49 38 22 59 39 59 51 0 5 -12 0 -27 -10 -16 -11
-37 -25 -49 -33 -12 -8 -40 -28 -63 -46 -37 -28 -47 -31 -96 -27 -102 7 -168
63 -190 162 -3 17 -11 32 -16 32 -11 0 -6 -22 17 -77 9 -22 9 -35 2 -39 -14
-9 -25 11 -40 69 -6 26 -16 47 -21 47 -4 0 -5 -10 -1 -22z"/>
<path d="M1118 975 c-8 -8 17 -82 34 -102 22 -26 93 -62 128 -64 58 -3 66 0
109 35 23 19 50 38 61 41 18 6 50 62 50 87 0 20 -18 -3 -23 -31 -4 -21 -17
-35 -39 -47 -18 -9 -48 -30 -66 -45 -39 -35 -87 -38 -147 -10 -51 23 -72 48
-88 100 -6 24 -15 40 -19 36z"/>
<path d="M1150 975 c0 -2 7 -23 16 -45 18 -45 63 -77 118 -84 35 -5 86 10 86
24 0 4 16 15 36 26 20 10 40 29 45 42 12 31 11 45 -1 37 -5 -3 -10 -15 -10
-25 0 -11 -12 -26 -27 -34 -16 -8 -39 -24 -52 -35 -55 -48 -161 -13 -182 60
-7 21 -16 39 -21 39 -4 0 -8 -2 -8 -5z"/>
<path d="M1201 951 c25 -70 93 -89 163 -45 43 28 65 58 52 72 -4 3 -9 -3 -12
-13 -3 -11 -25 -32 -49 -47 -33 -22 -50 -27 -74 -22 -32 7 -71 45 -71 70 0 8
-4 14 -9 14 -6 0 -6 -11 0 -29z"/>
<path d="M1238 974 c-13 -12 11 -42 43 -53 28 -10 36 -8 66 14 18 15 33 31 33
36 0 6 -14 -1 -31 -15 -17 -14 -38 -26 -48 -26 -20 0 -47 19 -53 38 -2 7 -7
10 -10 6z"/>
<path d="M1525 965 c-3 -8 -7 -22 -10 -30 -2 -8 0 -15 5 -15 6 0 10 3 11 8 0
4 2 17 5 30 4 25 -4 30 -11 7z"/>
<path d="M1567 973 c-10 -19 -17 -63 -8 -63 4 0 11 14 15 32 6 31 3 47 -7 31z"/>
<path d="M1636 968 c-3 -7 -7 -27 -10 -45 -5 -28 -2 -32 27 -42 28 -10 33 -9
48 11 10 12 19 37 21 55 4 33 4 33 -39 33 -26 0 -45 -5 -47 -12z"/>
<path d="M1749 973 c0 -5 -2 -16 -4 -25 -3 -17 17 -18 311 -18 l314 0 0 25 0
25 -310 0 c-170 0 -310 -3 -311 -7z"/>
</g>
</svg>
